<svg xmlns="http://www.w3.org/2000/svg" viewBox="0 0 537.38 348.8"><defs><style>.cls-1{fill:#2c2d53;}.cls-2{fill:#89164a;}.cls-3{fill:#941d4e;}.cls-4{fill:#891d53;}.cls-5{fill:#63143b;}</style></defs><g id="Layer_2" data-name="Layer 2"><g id="Layer_7" data-name="Layer 7"><circle class="cls-1" cx="268.69" cy="147.4" r="91.11"/><path class="cls-1" d="M248.3,124.36c-9.33-3.52-19.21-6.11-29.13-9.29C127.54,85.62,47.91,135.52,45.54,231.53c-3.95,20,.18,77.94.27,58.73C52.28,133.52,137.43,116,246.15,128.15,246.86,126.89,247.59,125.63,248.3,124.36Z"/><path class="cls-1" d="M252.47,115.6c-9.27-7-19.69-12.9-29.95-19.52-84.72-54.6-178.26-27.16-206,67.42C7.26,182.28-3.85,240.87,1.31,221.84c48.62-156,141.23-147.22,249.9-103.33C251.64,117.54,252.05,116.57,252.47,115.6Z"/><path class="cls-1" d="M255.12,109.85A93.11,93.11,0,0,0,251,100c-24.47-72-87.64-97.5-139.56-61.3-8.19,5.72-16.64,10.46-23.18,17.55,64.48-26.51,122-33.18,164.59,58.45C253.58,113,254.31,111.43,255.12,109.85Z"/><path class="cls-1" d="M240.21,151.91a61,61,0,0,1,1.57-13.15c-91.09-6.47-155,56.83-139.3,148.64,0,20.42,15.25,76.44,11.62,57.57C93.12,209.18,152,166.54,240.21,151.91Z"/><path class="cls-1" d="M289.08,124.36c9.33-3.52,19.21-6.11,29.13-9.29,91.63-29.45,171.26,20.45,173.63,116.46,4,20-.18,77.94-.27,58.73C485.1,133.52,400,116,291.23,128.15Z"/><path class="cls-1" d="M284.91,115.6c9.28-7,19.69-12.9,30-19.52,84.71-54.6,178.26-27.16,206,67.42,9.27,18.78,20.38,77.37,15.22,58.34-48.62-156-141.23-147.22-249.9-103.33Z"/><path class="cls-1" d="M282.26,109.85a95.27,95.27,0,0,1,4.1-9.88c24.47-72,87.64-97.5,139.56-61.3,8.19,5.72,16.64,10.46,23.18,17.55-64.48-26.51-122-33.18-164.59,58.45C283.8,113,283.07,111.43,282.26,109.85Z"/><path class="cls-1" d="M297.18,151.91a61.65,61.65,0,0,0-1.58-13.15c91.09-6.47,155,56.83,139.3,148.64,0,20.42-15.25,76.44-11.62,57.57C444.26,209.18,385.37,166.54,297.18,151.91Z"/><ellipse class="cls-2" cx="287.56" cy="98.09" rx="31.36" ry="88.96" transform="translate(106.53 342.1) rotate(-72.26)"/><path class="cls-3" d="M365.18,42.83,310.8,25.44,256.41,8C252,31.19,246.29,52,233.32,80.26h0a3.2,3.2,0,0,0-.17.43c-3.39,10.59,18.21,27,48.25,36.56s57.12,8.81,60.51-1.77c.05-.15.07-.31.11-.46h0C347.93,84.48,355.37,64.26,365.18,42.83Z"/><path class="cls-3" d="M365.18,42.83,310.8,25.44,256.41,8C252,31.19,246.29,52,233.32,80.26h0a3.2,3.2,0,0,0-.17.43c-3.39,10.59,18.21,27,48.25,36.56s57.12,8.81,60.51-1.77c.05-.15.07-.31.11-.46h0C347.93,84.48,355.37,64.26,365.18,42.83Z"/><path class="cls-4" d="M342.08,115h0a3.43,3.43,0,0,1-.11.46c-3.39,10.58-30.48,11.38-60.51,1.77s-51.64-26-48.25-36.56a3.2,3.2,0,0,1,.17-.43h0c.51-1.11,1-2.2,1.49-3.28a98.32,98.32,0,0,0,19,8.35c44.37,14.19,90.89-5,109.29-43.17l2.09.67C355.37,64.26,347.93,84.48,342.08,115Z"/><path class="cls-5" d="M341.94,115.49c-3.39,10.58-30.48,11.38-60.51,1.77s-51.64-26-48.25-36.56a6.71,6.71,0,0,1,.56-1.29c-1.24,10.58,19.78,26,48.54,35.18s54.82,8.85,60-.48A7.54,7.54,0,0,1,341.94,115.49Z"/><ellipse class="cls-3" cx="310.65" cy="25.88" rx="20.12" ry="57.1" transform="translate(191.37 313.89) rotate(-72.26)"/><path class="cls-5" d="M365.18,42.83c-1.24,2.71-2.45,5.4-3.6,8.1-7.5,7.43-31.83,7.1-58.48-1.42s-46.66-22.38-48.45-32.78c.62-2.87,1.2-5.76,1.76-8.69l0,0c-2.65,10.59,18.75,26.63,48.36,36.1s56.34,8.82,60.33-1.34Z"/></g></g></svg>