<svg id="Layer_1" data-name="Layer 1" xmlns="http://www.w3.org/2000/svg" viewBox="0 0 470.16 306.22"><defs><style>.cls-1{fill:#2c2d53;}.cls-2{fill:#13808f;}.cls-3{fill:#024247;}</style></defs><circle class="cls-1" cx="235.08" cy="130.01" r="79.72"/><path class="cls-1" d="M282.16,181.75c-8.16-3.08-16.81-5.35-25.48-8.13-80.17-25.77-149.84,17.89-151.92,101.89-3.45,17.53.16,68.19.24,51.38,5.66-137.13,80.16-152.43,175.28-141.82C280.9,184,281.54,182.86,282.16,181.75Z" transform="translate(-64.92 -71.89)"/><path class="cls-1" d="M285.81,174.08c-8.12-6.15-17.22-11.28-26.21-17.07-74.12-47.77-156-23.77-180.21,59-8.12,16.43-17.84,67.7-13.32,51,42.54-136.53,123.56-128.8,218.64-90.4Z" transform="translate(-64.92 -71.89)"/><path class="cls-1" d="M288.13,169.05a82.47,82.47,0,0,0-3.59-8.64c-21.41-63-76.67-85.3-122.1-53.63-7.17,5-14.56,9.15-20.28,15.36,56.41-23.2,106.73-29,144,51.13C286.78,171.85,287.42,170.43,288.13,169.05Z" transform="translate(-64.92 -71.89)"/><path class="cls-1" d="M275.08,205.85a54,54,0,0,1,1.37-11.5c-79.69-5.67-135.65,49.72-121.87,130,0,17.87,13.34,66.88,10.17,50.37C146.39,256,197.92,218.65,275.08,205.85Z" transform="translate(-64.92 -71.89)"/><path class="cls-1" d="M317.84,181.75c8.16-3.08,16.81-5.35,25.48-8.13,80.17-25.77,149.84,17.89,151.92,101.89,3.45,17.53-.16,68.19-.24,51.38-5.66-137.13-80.16-152.43-175.28-141.82C319.1,184,318.46,182.86,317.84,181.75Z" transform="translate(-64.92 -71.89)"/><path class="cls-1" d="M314.19,174.08c8.12-6.15,17.22-11.28,26.21-17.07,74.12-47.77,156-23.77,180.21,59,8.12,16.43,17.84,67.7,13.32,51-42.54-136.53-123.56-128.8-218.64-90.4Z" transform="translate(-64.92 -71.89)"/><path class="cls-1" d="M311.87,169.05a82.47,82.47,0,0,1,3.59-8.64c21.41-63,76.67-85.3,122.1-53.63,7.17,5,14.56,9.15,20.28,15.36-56.41-23.2-106.73-29-144,51.13C313.22,171.85,312.58,170.43,311.87,169.05Z" transform="translate(-64.92 -71.89)"/><path class="cls-1" d="M324.92,205.85a54,54,0,0,0-1.37-11.5c79.69-5.67,135.65,49.72,121.87,130,0,17.87-13.34,66.88-10.17,50.37C453.61,256,402.08,218.65,324.92,205.85Z" transform="translate(-64.92 -71.89)"/><path class="cls-2" d="M368.77,161.94c-5.76,5.4-29.33,6.46-58.55-2.71s-43.25-19-47.28-30.46l2.41-3.71,27.2-41.92c0-.07,0-.13.06-.19l.08-.21c3.76-10.6,23-14,43.44-7.63,18.6,5.83,31.8,17.86,31.71,28.15a10.94,10.94,0,0,1-.26,2.36,9.44,9.44,0,0,1-.25.95l1.29,49.86Z" transform="translate(-64.92 -71.89)"/><path class="cls-2" d="M384.18,185.09c-1.43,4.57-38.87,6.17-78.6-6.28s-66.69-34.23-65.26-38.8l2.08-1.23L265.85,125c1.43-4.57,25.35-1.14,53.41,7.65s49.66,19.64,48.23,24.21l15,25.43Z" transform="translate(-64.92 -71.89)"/><path class="cls-3" d="M368.88,159.68c-5.76,5.41-29.33,6.46-58.56-2.71S267.08,138,263,126.52l.94-1.45c4.89,10.65,18.93,19.87,46.5,28.52,28.82,9,52.15,8.13,58.31,2.92Z" transform="translate(-64.92 -71.89)"/><path class="cls-3" d="M367.84,103.26a10.94,10.94,0,0,1-.26,2.36c-5.67,7-22.93,8.75-41.57,3.64-20.14-5.52-34.6-17-33.4-26.31a2.76,2.76,0,0,1,.06-.4,1.37,1.37,0,0,0,0,.19c.82,8.87,14.65,19.24,33.42,24.36S362.35,110.44,367.84,103.26Z" transform="translate(-64.92 -71.89)"/></svg>